<svg width="128" height="128" viewBox="0 0 128 128" fill="none" xmlns="http://www.w3.org/2000/svg">
  <defs>
    <linearGradient id="bg" x1="0%" y1="0%" x2="100%" y2="100%">
      <stop offset="0%" stop-color="#4285f4"/>
      <stop offset="100%" stop-color="#1a73e8"/>
    </linearGradient>
    <linearGradient id="mic" x1="0%" y1="0%" x2="100%" y2="100%">
      <stop offset="0%" stop-color="#ffffff"/>
      <stop offset="100%" stop-color="#e8f0fe"/>
    </linearGradient>
  </defs>
  
  <!-- 背景 -->
  <rect width="128" height="128" rx="20" fill="url(#bg)"/>
  
  <!-- 文本行 -->
  <rect x="20" y="40" width="64" height="6" rx="3" fill="white" opacity="0.9"/>
  <rect x="20" y="52" width="64" height="6" rx="3" fill="white" opacity="0.9"/>
  <rect x="20" y="64" width="48" height="6" rx="3" fill="white" opacity="0.9"/>
  
  <!-- 翻译箭头 -->
  <path d="M20 80h48l-4 8H24l-4-8z" fill="white" opacity="0.8"/>
  <path d="M44 88v8" stroke="white" stroke-width="3" stroke-linecap="round" opacity="0.8"/>
  
  <!-- 翻译后文本 -->
  <rect x="20" y="100" width="56" height="4" rx="2" fill="white" opacity="0.7"/>
  <rect x="20" y="108" width="40" height="4" rx="2" fill="white" opacity="0.7"/>
  
  <!-- 录音图标 -->
  <circle cx="96" cy="32" r="16" fill="#ea4335"/>
  <path d="M88 24l16 16M104 24L88 40" stroke="white" stroke-width="3" stroke-linecap="round"/>
  
  <!-- 麦克风 -->
  <rect x="88" y="80" width="16" height="24" rx="8" fill="url(#mic)"/>
  <rect x="92" y="84" width="8" height="16" rx="4" fill="#4285f4"/>
  <path d="M80 96c0-8.8 7.2-16 16-16s16 7.2 16 16" stroke="white" stroke-width="3" stroke-linecap="round" fill="none"/>
  <line x1="96" y1="112" x2="96" y2="120" stroke="white" stroke-width="3" stroke-linecap="round"/>
  <line x1="88" y1="120" x2="104" y2="120" stroke="white" stroke-width="3" stroke-linecap="round"/>
  
  <!-- 音波效果 -->
  <circle cx="96" cy="92" r="20" stroke="white" stroke-width="2" fill="none" opacity="0.3"/>
  <circle cx="96" cy="92" r="28" stroke="white" stroke-width="1" fill="none" opacity="0.2"/>
</svg>